<svg width="40" height="40" viewBox="0 0 40 40" fill="none" xmlns="http://www.w3.org/2000/svg">
<g id="Group 12">
<circle id="Oval" cx="20" cy="20" r="20" fill="#F9818E"/>
<g id="Shape 4">
<path id="Shape" fill-rule="evenodd" clip-rule="evenodd" d="M14.9437 15H25.0567C27.7897 15 30 17.0294 30 19.8847C30 22.7419 27.7897 24.8214 25.0566 24.8214H14.9437C12.2117 24.8214 10 22.7419 10 19.8847C10 17.0294 12.2117 15 14.9437 15ZM17.2662 20.625C17.3919 20.625 17.5 20.5087 17.5 20.3883H17.5V19.3997C17.5 19.2792 17.3942 19.1964 17.2689 19.1964H15.7143V17.6445C15.7143 17.5187 15.598 17.4107 15.4776 17.4107H14.489C14.3685 17.4107 14.2857 17.5166 14.2857 17.6418V19.1964H12.7024C12.5856 19.1964 12.5 19.2921 12.5 19.4094V20.3659C12.5 20.4864 12.5907 20.625 12.717 20.625H14.2857V22.2083C14.2857 22.3251 14.3813 22.4107 14.4987 22.4107H15.4552C15.5757 22.4107 15.7143 22.32 15.7143 22.1937V20.625H17.2662ZM22.8467 20.7806C22.3674 20.7806 21.9783 20.3973 21.9783 19.9256C21.9783 19.4539 22.3674 19.0699 22.8467 19.0699C23.3281 19.0699 23.7171 19.4539 23.7171 19.9256C23.7171 20.3973 23.3281 20.7806 22.8467 20.7806ZM23.8778 21.7954C23.8778 22.2666 24.2669 22.6474 24.7462 22.6474C25.2276 22.6474 25.6166 22.2666 25.6166 21.7954C25.6166 21.3205 25.2275 20.9404 24.7462 20.9404C24.2669 20.9404 23.8778 21.3204 23.8778 21.7954ZM24.7462 18.9114C24.2669 18.9114 23.8778 18.5284 23.8778 18.0567C23.8778 17.5849 24.2669 17.2009 24.7462 17.2009C25.2275 17.2009 25.6166 17.5849 25.6166 18.0567C25.6166 18.5284 25.2276 18.9114 24.7462 18.9114ZM25.7777 19.9256C25.7777 20.3973 26.1667 20.7806 26.6456 20.7806C27.125 20.7806 27.514 20.3973 27.514 19.9256C27.514 19.4539 27.125 19.0699 26.6456 19.0699C26.1667 19.0699 25.7777 19.4539 25.7777 19.9256Z" fill="white"/>
</g>
</g>
</svg>
