<?xml version="1.0" encoding="UTF-8"?>
<!-- Generated by Pixelmator Pro 3.5.7 -->
<svg width="768" height="172" viewBox="0 0 768 172" xmlns="http://www.w3.org/2000/svg">
    <g id="Group">
        <g id="g1">
            <path id="Path" fill="#483eff" fill-rule="evenodd" stroke="none" d="M -82.949776 -213.523895 L 860.324646 -213.523895 L 860.324646 219.124649 L -82.949776 219.124649 Z"/>
        </g>
        <g id="g2">
            <g id="g3">
                <path id="path1" fill="#6259ff" fill-rule="evenodd" stroke="none" d="M -262.757996 328.989685 C -125.550552 652.585632 473.056396 842.463013 629.2677 580.157227 C 785.478943 317.851501 390.216766 270.250153 250.491394 -0.806717 C 110.768623 -271.863495 2.193965 -441.039185 -199.69696 -379.288635 C -401.587891 -317.535583 -399.962921 5.391235 -262.757996 328.989685 Z"/>
                <path id="path2" fill="#ffaf7e" fill-rule="evenodd" stroke="none" d="M 106.117622 100.282127 C 106.117622 234.16507 -2.366384 342.698669 -136.188187 342.698669 C -270.009979 342.698669 -378.494019 234.16507 -378.494019 100.282127 C -378.494019 -33.600815 -270.009979 -142.134369 -136.188187 -142.134369 C -2.366384 -142.134369 106.117622 -33.600815 106.117622 100.282127 Z"/>
                <path id="path3" fill="#f9818e" fill-rule="evenodd" stroke="none" d="M 706.510559 539.055664 C 926.130005 436.704071 1042.530151 19.563004 858.070862 -81.794983 C 673.609131 -183.147919 650.331604 90.421768 466.964111 193.246246 C 283.596588 296.068146 169.664124 374.971191 217.064285 512.633911 C 264.466949 650.296631 486.891113 641.407227 706.510559 539.055664 Z"/>
                <g id="g4">
                    <path id="path4" fill="none" stroke="#ffffff" stroke-width="12.576992" stroke-linecap="round" stroke-linejoin="bevel" d="M 461.148499 61.077126 L 499.541016 21.96521 M 620.966919 80.926155 L 575.702332 42.913452 M 541.701599 133.082947 L 516.698608 186.643326"/>
                </g>
            </g>
        </g>
    </g>
</svg>
