<svg width="40" height="40" viewBox="0 0 40 40" fill="none" xmlns="http://www.w3.org/2000/svg">
<g id="Group 13">
<circle id="Oval" cx="20" cy="20" r="20" fill="#483EFF"/>
<g id="Shape 3">
<path id="Shape" fill-rule="evenodd" clip-rule="evenodd" d="M13.3336 13H26.6664C28.5073 13 29.9996 14.4923 29.9996 16.3332V23.5263C30.0204 24.9435 29.1714 26.229 27.8597 26.7662C26.6224 27.2684 25.2033 26.9495 24.2998 25.9662L21.4799 22.9996H18.5201L15.7002 25.9662C14.7957 26.9478 13.3778 27.2664 12.1403 26.7662C10.8286 26.229 9.97962 24.9435 10.0004 23.5263V16.3332C10.0004 14.4923 11.4927 13 13.3336 13ZM16.0001 18.9998H17.3334C17.7016 18.9998 18.0001 18.7013 18.0001 18.3331C18.0001 17.965 17.7016 17.6665 17.3334 17.6665H16.0001V16.3332C16.0001 15.965 15.7017 15.6666 15.3335 15.6666C14.9653 15.6666 14.6669 15.965 14.6669 16.3332V17.6665H13.3336C12.9654 17.6665 12.6669 17.965 12.6669 18.3331C12.6669 18.7013 12.9654 18.9998 13.3336 18.9998H14.6669V20.3331C14.6669 20.7012 14.9653 20.9997 15.3335 20.9997C15.7017 20.9997 16.0001 20.7012 16.0001 20.3331V18.9998ZM24.6665 20.9997C23.1938 20.9997 21.9999 19.8058 21.9999 18.3331C21.9999 16.8604 23.1938 15.6666 24.6665 15.6666C26.1392 15.6666 27.3331 16.8604 27.3331 18.3331C27.3331 19.0404 27.0521 19.7186 26.552 20.2187C26.052 20.7188 25.3737 20.9997 24.6665 20.9997ZM24.6665 19.6664C25.4028 19.6664 25.9998 19.0695 25.9998 18.3331C25.9998 17.5968 25.4028 16.9999 24.6665 16.9999C23.9301 16.9999 23.3332 17.5968 23.3332 18.3331C23.3332 19.0695 23.9301 19.6664 24.6665 19.6664Z" fill="white"/>
</g>
</g>
</svg>
